<svg class="svg-icon" style="width: 1em; height: 1em;vertical-align: middle;fill: currentColor;overflow: hidden;" viewBox="0 0 1024 1024" version="1.1" xmlns="http://www.w3.org/2000/svg"><path d="M512 597.333333c-153.6 0-277.333333-123.733333-277.333333-277.333333S358.4 42.666667 512 42.666667s277.333333 123.733333 277.333333 277.333333-123.733333 277.333333-277.333333 277.333333z m0-469.333333c-106.666667 0-192 85.333333-192 192s85.333333 192 192 192 192-85.333333 192-192-85.333333-192-192-192z" fill="#4E4E4E" /><path d="M768 979.2c-10.666667 0-23.466667-4.266667-32-10.666667L682.666667 928c-76.8-57.6-113.066667-102.4-123.733334-151.466667-8.533333-40.533333 0-81.066667 21.333334-115.2 21.333333-32 55.466667-53.333333 96-59.733333 32-4.266667 64 2.133333 91.733333 17.066667 27.733333-14.933333 59.733333-21.333333 91.733333-17.066667 38.4 6.4 72.533333 27.733333 96 59.733333 23.466667 34.133333 32 74.666667 23.466667 115.2-10.666667 49.066667-46.933333 91.733333-123.733333 151.466667l-53.333334 40.533333c-10.666667 6.4-23.466667 10.666667-34.133333 10.666667z m-70.4-292.266667h-8.533333c-14.933333 2.133333-27.733333 10.666667-36.266667 23.466667-10.666667 12.8-12.8 32-10.666667 46.933333 4.266667 17.066667 17.066667 44.8 91.733334 102.4l34.133333 25.6 34.133333-25.6c74.666667-57.6 87.466667-85.333333 91.733334-102.4 4.266667-17.066667 0-34.133333-10.666667-46.933333-8.533333-12.8-21.333333-21.333333-36.266667-23.466667-17.066667-2.133333-32 2.133333-44.8 12.8-19.2 17.066667-49.066667 17.066667-68.266666 0-10.666667-8.533333-23.466667-14.933333-36.266667-12.8z" fill="#FF9813" /><path d="M85.333333 981.333333c-23.466667 0-42.666667-19.2-42.666666-42.666666 0-234.666667 192-426.666667 426.666666-426.666667 23.466667 0 42.666667 19.2 42.666667 42.666667s-19.2 42.666667-42.666667 42.666666c-187.733333 0-341.333333 153.6-341.333333 341.333334 0 23.466667-19.2 42.666667-42.666667 42.666666z" fill="#4E4E4E" /></svg>